<svg version="1.1" xmlns="http://www.w3.org/2000/svg" xmlns:xlink="http://www.w3.org/1999/xlink" width="77" height="73"><defs/><g><path fill="rgb(37,44,58)" stroke="none" paint-order="stroke fill markers" fill-rule="evenodd" d=" M 39.358856201171875 28.84163987636566 C 34.3193359375 28.84163987636566 30.219146728515625 32.97801649570465 30.219146728515625 38.06181573867798 C 30.219146728515625 43.14612257480621 34.3193359375 47.28224539756775 39.358856201171875 47.28224539756775 C 44.398834228515625 47.28224539756775 48.49890899658203 43.14586877822876 48.49890899658203 38.06181573867798 C 48.49879455566406 32.97801649570465 44.398834228515625 28.84163987636566 39.358856201171875 28.84163987636566 Z M 39.358856201171875 43.79330384731293 C 36.226036071777344 43.79330384731293 33.67755126953125 41.222344517707825 33.67755126953125 38.06181573867798 C 33.67755126953125 34.901540756225586 36.22615051269531 32.33058142662048 39.358856201171875 32.33058142662048 C 42.49156188964844 32.33058142662048 45.04039001464844 34.90179455280304 45.04039001464844 38.06181573867798 C 45.04039001464844 41.22209072113037 42.491790771484375 43.79330384731293 39.358856201171875 43.79330384731293 Z M 72.76473236083984 22.12034511566162 C 73.43787384033203 17.13045060634613 72.66516876220703 12.885956645011902 70.5299301147461 9.750807523727417 C 70.87931823730469 8.972413420677185 71.0755844116211 8.110012650489807 71.0755844116211 7.201420903205872 C 71.0755844116211 3.78201961517334 68.3180160522461 1.0001553297042847 64.92827606201172 1.0001553297042847 C 62.63774108886719 1.0001553297042847 60.63697052001953 2.271676182746887 59.57953643798828 4.150532245635986 C 53.788368225097656 3.858666181564331 46.697837829589844 6.005277633666992 39.35851287841797 10.28276515007019 C 26.82769012451172 2.9769768714904785 15.482475280761719 2.099348306655884 9.597122192382812 8.038695812225342 C 7.039253234863281 10.619045615196228 5.714485168457031 14.31102442741394 5.720664978027344 18.771499276161194 C 3.534271240234375 19.72298264503479 1.999847412109375 21.917815446853638 1.999847412109375 24.46847105026245 C 1.999847412109375 27.887872338294983 4.757530212402344 30.669736623764038 8.14715576171875 30.669736623764038 C 8.182746887207031 30.669736623764038 8.217880249023438 30.66770625114441 8.25335693359375 30.66694486141205 C 9.198867797851562 33.092732548713684 10.394775390625 35.57130992412567 11.821395874023438 38.06206953525543 C 4.579460144042969 50.70291566848755 3.7097091674804688 62.14812612533569 9.596778869628906 68.08518946170807 C 12.194015502929688 70.70614671707153 15.853263854980469 71.9997478723526 20.20911407470703 71.9997478723526 C 25.724708557128906 71.99949407577515 32.357017517089844 69.92318427562714 39.3583984375 65.84162771701813 C 46.3603515625 69.92369186878204 52.991973876953125 71.9997478723526 58.508140563964844 71.9997478723526 C 62.86387634277344 71.9997478723526 66.52415466308594 70.70614671707153 69.12162017822266 68.08569705486298 C 75.00834655761719 62.14711093902588 74.1371078491211 50.70139288902283 66.89322662353516 38.06105434894562 C 70.07937622070312 32.4968181848526 72.10612487792969 27.003898859024048 72.76473236083984 22.12034511566162 Z M 64.92827606201172 4.488843083381653 C 66.41085815429688 4.488843083381653 67.61717987060547 5.7057976722717285 67.61717987060547 7.201420903205872 C 67.61717987060547 8.697044134140015 66.41085815429688 9.91399872303009 64.92827606201172 9.91399872303009 C 63.44580841064453 9.91399872303009 62.23937225341797 8.697044134140015 62.23937225341797 7.201420903205872 C 62.23937225341797 5.7057976722717285 63.445579528808594 4.488843083381653 64.92827606201172 4.488843083381653 Z M 58.79607391357422 7.613078951835632 C 59.006988525390625 10.84111762046814 61.675865173339844 13.402940273284912 64.92827606201172 13.402940273284912 C 66.10575866699219 13.402940273284912 67.2065658569336 13.066659808158875 68.14234924316406 12.485211849212646 C 69.4224853515625 14.83003842830658 69.8363037109375 17.956304669380188 69.33802795410156 21.650060057640076 C 68.8032455444336 25.615123987197876 67.24639129638672 30.07077670097351 64.80925750732422 34.66373336315155 C 62.03074645996094 30.412640690803528 58.69158935546875 26.3087500333786 54.85072326660156 22.433783888816833 C 51.01008605957031 18.559325337409973 46.94068145751953 15.189921975135803 42.724449157714844 12.384454607963562 C 48.62811279296875 9.190932273864746 54.203330993652344 7.534655809402466 58.79607391357422 7.613078951835632 Z M 8.14715576171875 27.180795073509216 C 6.664573669433594 27.180795073509216 5.458251953125 25.964094281196594 5.458251953125 24.46847105026245 C 5.458251953125 22.972847819328308 6.664573669433594 21.755893230438232 8.14715576171875 21.755893230438232 C 9.629737854003906 21.755893230438232 10.8360595703125 22.972847819328308 10.8360595703125 24.46847105026245 C 10.836174011230469 25.96384048461914 9.629852294921875 27.180795073509216 8.14715576171875 27.180795073509216 Z M 11.565048217773438 29.620033979415894 C 13.209793090820312 28.50586700439453 14.294578552246094 26.612544536590576 14.294578552246094 24.46847105026245 C 14.294578552246094 21.404131174087524 12.079345703125 18.85347557067871 9.180099487304688 18.356288075447083 C 9.250137329101562 15.03231430053711 10.225975036621094 12.338263630867004 12.042610168457031 10.505598545074463 C 16.464378356933594 6.043600916862488 25.690032958984375 6.8280861377716064 35.98994445800781 12.386484980583191 C 31.774513244628906 15.191190958023071 27.70636749267578 18.560086727142334 23.866531372070312 22.433783888816833 C 20.02600860595703 26.30798864364624 16.686508178710938 30.412386894226074 13.906166076660156 34.66500234603882 C 13.002883911132812 32.96304249763489 12.22125244140625 31.27681803703308 11.565048217773438 29.620033979415894 Z M 12.042152404785156 65.6185405254364 C 7.619239807128906 61.157811880111694 8.396865844726562 51.85083758831024 13.906623840332031 41.46065950393677 C 16.686965942382812 45.71302115917206 20.026351928710938 49.816911816596985 23.866302490234375 53.69086277484894 C 27.70636749267578 57.564306139945984 31.774513244628906 60.93320190906525 35.989715576171875 63.73816168308258 C 25.689918518066406 69.29605293273926 16.464378356933594 70.08053815364838 12.042152404785156 65.6185405254364 Z M 26.31201934814453 51.22345244884491 C 22.19214630126953 47.06753349304199 18.677780151367188 42.644112944602966 15.8531494140625 38.06206953525543 C 18.67743682861328 33.4800261259079 22.192031860351562 29.056859374046326 26.31201934814453 24.9004328250885 C 30.43189239501953 20.74426007270813 34.81658172607422 17.198975682258606 39.358741760253906 14.34960150718689 C 43.900672912597656 17.198975682258606 48.28559112548828 20.74426007270813 52.40534973144531 24.9004328250885 C 56.52648162841797 29.058128356933594 60.040504455566406 33.481295108795166 62.86261749267578 38.06206953525543 C 60.040618896484375 42.642590165138245 56.52659606933594 47.06601071357727 52.40534973144531 51.22345244884491 C 48.28559112548828 55.37962520122528 43.900672912597656 58.92516338825226 39.358741760253906 61.774537563323975 C 34.81669616699219 58.92516338825226 30.431663513183594 55.37962520122528 26.31201934814453 51.22345244884491 Z M 66.67613220214844 65.6185405254364 C 62.25299072265625 70.08028435707092 53.026878356933594 69.29605293273926 42.727195739746094 63.73790788650513 C 46.94251251220703 60.93320190906525 51.010658264160156 57.564306139945984 54.850608825683594 53.690608978271484 C 58.69170379638672 49.81564283370972 62.03063201904297 45.71175217628479 64.80891418457031 41.46091330051422 C 70.31993103027344 51.85058379173279 71.09858703613281 61.15755808353424 66.67613220214844 65.6185405254364 Z"/></g></svg>